<?xml version="1.0" encoding="utf-8"?>
<!-- Generator: Adobe Illustrator 19.2.1, SVG Export Plug-In . SVG Version: 6.00 Build 0)  -->
<svg version="1.1" id="Layer_1" xmlns="http://www.w3.org/2000/svg" xmlns:xlink="http://www.w3.org/1999/xlink" x="0px" y="0px"
	 viewBox="0 0 200 200" style="enable-background:new 0 0 200 200;" xml:space="preserve">
<style type="text/css">
	.st0{fill:#414141;}
	.st1{fill:#C0C0C0;}
	.st2{fill:#FFFFFF;}
	.st3{fill:#231F20;}
</style>
<path class="st0" d="M160,200H40c-22,0-40-18-40-40V40C0,18,18,0,40,0h120c22,0,40,18,40,40v120C200,182,182,200,160,200z"/>
<g>
	<path class="st1" d="M97.7,53.4l-8.6-14.9c-1.8-3.1-5.1-5-8.7-5H30c-5.5,0-10,4.5-10,10v100c0,5.5,4.5,10,10,10h140
		c5.5,0,10-4.5,10-10V68.4c0-5.5-4.5-10-10-10h-63.7C102.8,58.4,99.5,56.5,97.7,53.4z"/>
	<path class="st2" d="M97.7,66.4l-8.6-14.9c-1.8-3.1-5.1-5-8.7-5H30c-5.5,0-10,4.5-10,10v100c0,5.5,4.5,10,10,10h140
		c5.5,0,10-4.5,10-10V81.4c0-5.5-4.5-10-10-10h-63.7C102.8,71.4,99.5,69.5,97.7,66.4z"/>
</g>
<g>
	<path class="st3" d="M70.6,109.3h20.9V88.4h17.1v20.9h20.9V125h-20.9v21.1H91.5V125H70.6L70.6,109.3L70.6,109.3z"/>
</g>
</svg>
