<?xml version="1.0" encoding="utf-8"?>
<!-- Generator: Adobe Illustrator 19.2.1, SVG Export Plug-In . SVG Version: 6.00 Build 0)  -->
<svg version="1.1" id="Layer_1" xmlns="http://www.w3.org/2000/svg" xmlns:xlink="http://www.w3.org/1999/xlink" x="0px" y="0px"
	 viewBox="0 0 200 200" style="enable-background:new 0 0 200 200;" xml:space="preserve">
<style type="text/css">
	.st0{fill:#C0C0C0;}
</style>
<path class="st0" d="M100,20c-44.2,0-80,35.8-80,80c0,44.2,35.8,80,80,80s80-35.8,80-80C180,55.8,144.2,20,100,20z M100,45
	c10.7,0,20.6,3,29,8.3L53.3,129c-5.2-8.4-8.3-18.4-8.3-29C45,69.6,69.6,45,100,45z M100,155c-10.7,0-20.6-3-29-8.3L146.7,71
	c5.2,8.4,8.3,18.4,8.3,29C155,130.4,130.4,155,100,155z"/>
</svg>