<?xml version="1.0" encoding="utf-8"?>
<!-- Generator: Adobe Illustrator 19.2.1, SVG Export Plug-In . SVG Version: 6.00 Build 0)  -->
<svg version="1.1" id="Layer_1" xmlns="http://www.w3.org/2000/svg" xmlns:xlink="http://www.w3.org/1999/xlink" x="0px" y="0px"
	 viewBox="0 0 210 210" style="enable-background:new 0 0 210 210;" xml:space="preserve">
<style type="text/css">
	.st0{fill:#FFFFFF;}
	.st1{stroke:#FFFFFF;stroke-width:10;stroke-miterlimit:10;}
</style>
<path class="st0" d="M148,155H62c-3.8,0-7-3.1-7-7V62c0-3.8,3.2-7,7-7h86c3.9,0,7,3.2,7,7v86C155,151.9,151.9,155,148,155z"/>
<circle class="st1" cx="105" cy="105" r="100"/>
<path class="st0" d="M151.1,111.6L77.6,154c-5,2.9-11.4-0.7-11.4-6.6V62.6c0-5.8,6.3-9.5,11.4-6.6l73.5,42.4
	C156.1,101.4,156.1,108.6,151.1,111.6z"/>
</svg>
