<?xml version="1.0" encoding="utf-8"?>
<!-- Generator: Adobe Illustrator 19.2.1, SVG Export Plug-In . SVG Version: 6.00 Build 0)  -->
<svg version="1.1" id="Layer_1" xmlns="http://www.w3.org/2000/svg" xmlns:xlink="http://www.w3.org/1999/xlink" x="0px" y="0px"
	 viewBox="0 0 309.2 205" style="enable-background:new 0 0 309.2 205;" xml:space="preserve">
<style type="text/css">
	.st0{fill:none;stroke:#000000;stroke-miterlimit:10;}
	.st1{fill:none;stroke:#000000;stroke-width:5;stroke-miterlimit:10;}
</style>
<g>
	<rect x="52.5" y="2.5" class="st0" width="50" height="22.2"/>
	<rect x="102.5" y="2.5" class="st0" width="50" height="22.2"/>
	<rect x="152.5" y="2.5" class="st0" width="50" height="22.2"/>
	<rect x="2.5" y="2.5" class="st0" width="50" height="22.2"/>
	<rect x="52.5" y="24.7" class="st0" width="50" height="22.2"/>
	<rect x="102.5" y="24.7" class="st0" width="50" height="22.2"/>
	<rect x="152.5" y="24.7" class="st0" width="50" height="22.2"/>
	<rect x="2.5" y="24.7" class="st0" width="50" height="22.2"/>
	<rect x="52.5" y="47" class="st0" width="50" height="22.2"/>
	<rect x="102.5" y="47" class="st0" width="50" height="22.2"/>
	<rect x="152.5" y="47" class="st0" width="50" height="22.2"/>
	<rect x="2.5" y="47" class="st0" width="50" height="22.2"/>
	<rect x="52.5" y="69.1" class="st0" width="50" height="22.2"/>
	<rect x="102.5" y="69.1" class="st0" width="50" height="22.2"/>
	<rect x="152.5" y="69.1" class="st0" width="50" height="22.2"/>
	<rect x="2.5" y="69.1" class="st0" width="50" height="22.2"/>
	<rect x="52.5" y="91.3" class="st0" width="50" height="22.2"/>
	<rect x="102.5" y="91.3" class="st0" width="50" height="22.2"/>
	<rect x="152.5" y="91.3" class="st0" width="50" height="22.2"/>
	<rect x="2.5" y="91.3" class="st0" width="50" height="22.2"/>
	<rect x="52.5" y="113.6" class="st0" width="50" height="22.2"/>
	<rect x="102.5" y="113.6" class="st0" width="50" height="22.2"/>
	<rect x="152.5" y="113.6" class="st0" width="50" height="22.2"/>
	<rect x="2.5" y="113.6" class="st0" width="50" height="22.2"/>
	<rect x="52.5" y="135.8" class="st0" width="50" height="22.2"/>
	<rect x="102.5" y="135.8" class="st0" width="50" height="22.2"/>
	<rect x="152.5" y="135.8" class="st0" width="50" height="22.2"/>
	<rect x="2.5" y="135.8" class="st0" width="50" height="22.2"/>
	<rect x="52.5" y="158.1" class="st0" width="50" height="22.2"/>
	<rect x="102.5" y="158.1" class="st0" width="50" height="22.2"/>
	<rect x="152.5" y="158.1" class="st0" width="50" height="22.2"/>
	<rect x="2.5" y="158.1" class="st0" width="50" height="22.2"/>
	<rect x="52.5" y="180.3" class="st0" width="50" height="22.2"/>
	<rect x="102.5" y="180.3" class="st0" width="50" height="22.2"/>
	<rect x="152.5" y="180.3" class="st0" width="50" height="22.2"/>
	<rect x="2.5" y="180.3" class="st0" width="50" height="22.2"/>
	<rect x="2.5" y="2.5" class="st1" width="200" height="200"/>
</g>
<polygon class="st1" points="261.6,197.3 304.9,122.3 283.4,122.3 283.4,7.6 239.8,7.6 239.8,122.3 218.3,122.3 "/>
</svg>
