<?xml version="1.0" encoding="utf-8"?>
<!-- Generator: Adobe Illustrator 19.2.1, SVG Export Plug-In . SVG Version: 6.00 Build 0)  -->
<svg version="1.1" id="Layer_1" xmlns="http://www.w3.org/2000/svg" xmlns:xlink="http://www.w3.org/1999/xlink" x="0px" y="0px"
	 viewBox="0 0 200 200" style="enable-background:new 0 0 200 200;" xml:space="preserve">
<style type="text/css">
	.st0{fill:#FFFFFF;}
</style>
<g>
	<path class="st0" d="M71.6,79.8c-5.8,0-10.1-5.3-8.9-11c0.4-1.9,1-3.8,1.6-5.6c1.8-5,4.5-9.2,8-12.8c3.5-3.5,7.7-6.3,12.6-8.2
		c4.9-1.9,10.4-2.9,16.5-2.9c5.1,0,9.8,0.7,14.2,2.2c4.4,1.5,8.2,3.6,11.4,6.5c3.3,2.8,5.8,6.3,7.7,10.5c1.9,4.2,2.8,8.9,2.8,14.2
		c0,3.9-0.4,7.2-1.2,10c-0.8,2.8-1.9,5.2-3.3,7.3c-1.4,2-3,3.9-4.7,5.5c-1.8,1.6-3.5,3.2-5.3,4.7c-2.1,1.8-4,3.5-5.8,5.1
		c-1.8,1.7-3.3,3.5-4.6,5.6c-1.3,2-2.3,4.4-3.1,7.2c-0.2,0.8-0.4,1.7-0.5,2.6c-0.7,4.4-4.5,7.5-8.9,7.5h0c-5.4,0-9.6-4.6-9-10
		c0.1-0.8,0.2-1.6,0.3-2.4c0.5-3.4,1.3-6.3,2.4-8.9c1.1-2.5,2.5-4.8,4.1-6.7c1.6-1.9,3.5-3.8,5.7-5.7c1.8-1.5,3.5-3,5.1-4.3
		c1.6-1.3,3-2.8,4.3-4.4c1.3-1.6,2.3-3.4,3-5.4c0.7-2,1.1-4.4,1.1-7.1c0-3.3-0.6-6.2-1.7-8.5c-1.2-2.4-2.6-4.3-4.2-5.7
		c-1.7-1.4-3.4-2.5-5.3-3.1c-1.9-0.7-3.5-1-5-1c-6.8,0-11.9,2.2-15.2,6.7c-2.1,2.9-3.5,6.4-4.3,10.5c-0.8,4.3-4.5,7.4-8.9,7.4H71.6z
		 M97,139.8h4c5,0,9.1,4.1,9.1,9.1v2.6c0,5-4.1,9.1-9.1,9.1h-4c-5,0-9.1-4.1-9.1-9.1v-2.6C87.9,143.9,92,139.8,97,139.8z"/>
</g>
</svg>
