<?xml version="1.0" encoding="utf-8"?>
<!-- Generator: Adobe Illustrator 19.2.1, SVG Export Plug-In . SVG Version: 6.00 Build 0)  -->
<svg version="1.1" id="Layer_1" xmlns="http://www.w3.org/2000/svg" xmlns:xlink="http://www.w3.org/1999/xlink" x="0px" y="0px"
	 viewBox="0 0 200 200" style="enable-background:new 0 0 200 200;" xml:space="preserve">
<style type="text/css">
	.st0{fill:#C0C0C0;}
	.st1{fill:#FFFFFF;}
</style>
<g>
	<path class="st0" d="M97.4,47.6l-9.7-16.8c-2-3.5-5.7-5.6-9.7-5.6H21.2c-6.2,0-11.2,5.1-11.2,11.2v112.5c0,6.2,5.1,11.2,11.2,11.2
		h157.5c6.2,0,11.2-5.1,11.2-11.2V64.5c0-6.2-5-11.2-11.2-11.2h-71.6C103.1,53.2,99.4,51.1,97.4,47.6z"/>
	<path class="st1" d="M97.4,62.2l-9.7-16.8c-2-3.5-5.7-5.6-9.7-5.6H21.2c-6.2,0-11.2,5.1-11.2,11.2v112.5c0,6.2,5.1,11.2,11.2,11.2
		h157.5c6.2,0,11.2-5.1,11.2-11.2V79.1c0-6.2-5-11.2-11.2-11.2h-71.6C103.1,67.9,99.4,65.7,97.4,62.2z"/>
</g>
</svg>
