<?xml version="1.0" encoding="utf-8"?>
<!-- Generator: Adobe Illustrator 19.2.1, SVG Export Plug-In . SVG Version: 6.00 Build 0)  -->
<svg version="1.1" id="Layer_1" xmlns="http://www.w3.org/2000/svg" xmlns:xlink="http://www.w3.org/1999/xlink" x="0px" y="0px"
	 viewBox="0 0 345.3 89.1" style="enable-background:new 0 0 345.3 89.1;" xml:space="preserve">
<style type="text/css">
	.st0{fill:#FFFFFF;}
	.st1{fill:#A09F9F;}
	.st2{fill:#414141;}
</style>
<g>
	<path class="st0" d="M15.5,4v79.8H0V4H15.5z"/>
	<path class="st0" d="M41.9,4l21.3,53.6L84.4,4h17L67.7,83.8h-9.3L24.9,4H41.9z"/>
	<path class="st0" d="M172.2,79.8c-7.1,4.2-13.9,5.7-22.7,5.7c-25.1,0-42.6-17.2-42.6-41.6c0-24.3,17.5-41.7,42.6-41.7
		c25.1,0,42.6,17.5,42.6,41.7c0,15-6.2,23.6-10.5,28.3l12.9,13l-15.7,1.6L172.2,79.8z M170.8,61.2c2.5-3.3,5.3-8.4,5.3-17.2
		c0-16.1-11-27.6-26.6-27.6S123,27.8,123,43.9c0,16,10.9,27.5,26.9,27.5c5.4,0,9-1.2,11.8-2.6L145.5,53l16.1-1.3L170.8,61.2z"/>
</g>
<g>
	<path class="st1" d="M216.5,2.5v15.8h-3.1V2.5H216.5z"/>
	<path class="st1" d="M220.1,18.3V2.5h2.1l9.6,10.5V2.5h3.1v15.8h-2.1l-9.6-10.6v10.6H220.1z"/>
	<path class="st1" d="M243.4,5.2v13.1h-3.1V5.2h-3.6V2.5H247v2.7H243.4z"/>
	<path class="st1" d="M257.7,5.2H252v3.5h5.4v2.7H252v4.3h5.7v2.7h-8.8V2.5h8.8V5.2z"/>
	<path class="st1" d="M265.2,2.5c2.2,0,3.3,0.6,4,1.2c1.2,1,1.6,2.4,1.6,3.5c0,1.5-0.6,2.9-1.8,3.7c-0.4,0.3-1,0.5-1.7,0.7l4.9,6.7
		h-3.8l-4.2-6.3h-0.4v6.3h-3.1V2.5H265.2z M263.7,9.8h0.9c0.6,0,3-0.1,3-2.4c0-2.3-2.4-2.4-3-2.4h-0.9V9.8z"/>
	<path class="st1" d="M283.6,15h-6.4l-1.4,3.3h-3.3l6.8-15.8h2.4l6.6,15.8H285L283.6,15z M282.7,12.5l-2.2-5.7l-2.2,5.7H282.7z"/>
	<path class="st1" d="M301.1,17.8c-0.9,0.5-2.2,0.9-3.9,0.9c-2.8,0-4.4-0.9-5.8-2.2c-1.8-1.8-2.5-3.7-2.5-6c0-2.9,1.2-4.9,2.5-6.2
		c1.6-1.5,3.6-2.1,5.8-2.1c1.1,0,2.4,0.2,3.9,1v3.6c-1.4-1.7-3.2-1.8-3.8-1.8c-3.2,0-5.2,2.6-5.2,5.5c0,3.5,2.7,5.4,5.3,5.4
		c1.5,0,2.8-0.6,3.7-1.7V17.8z"/>
	<path class="st1" d="M309.2,5.2v13.1h-3.1V5.2h-3.6V2.5h10.2v2.7H309.2z"/>
	<path class="st1" d="M317.7,2.5v15.8h-3.1V2.5H317.7z"/>
	<path class="st1" d="M322.9,2.5l4.2,10.6l4.2-10.6h3.4L328,18.3h-1.8l-6.6-15.8H322.9z"/>
	<path class="st1" d="M345.3,5.2h-5.7v3.5h5.4v2.7h-5.4v4.3h5.7v2.7h-8.8V2.5h8.8V5.2z"/>
	<path class="st1" d="M215,23.9l4.2,10.6l4.2-10.6h3.4l-6.7,15.8h-1.8l-6.6-15.8H215z"/>
	<path class="st1" d="M231.7,23.9v15.8h-3.1V23.9H231.7z"/>
	<path class="st1" d="M239.4,23.9c2.2,0,4.1,0.2,5.9,1.5c1.9,1.4,3,3.7,3,6.4s-1.1,4.9-3.2,6.4c-1.8,1.3-3.6,1.5-5.8,1.5h-4.1V23.9
		H239.4z M238.4,37.1h0.9c0.8,0,2.5,0,3.9-1c1.3-0.9,2-2.5,2-4.2c0-1.7-0.7-3.3-1.9-4.2c-1.3-0.9-2.8-1-3.9-1h-0.9V37.1z"/>
	<path class="st1" d="M259.9,26.6h-5.7v3.5h5.4v2.7h-5.4v4.3h5.7v2.7h-8.8V23.9h8.8V26.6z"/>
	<path class="st1" d="M279,31.8c0,4.8-3.5,8.2-8.4,8.2s-8.4-3.4-8.4-8.2s3.5-8.3,8.4-8.3S279,27,279,31.8z M275.8,31.8
		c0-3.2-2.2-5.5-5.3-5.5c-3.1,0-5.3,2.3-5.3,5.5s2.2,5.4,5.3,5.4C273.6,37.3,275.8,35,275.8,31.8z"/>
	<path class="st1" d="M225.5,60.3c-1.4,0.8-2.7,1.1-4.5,1.1c-5,0-8.4-3.4-8.4-8.2c0-4.8,3.5-8.3,8.4-8.3s8.4,3.5,8.4,8.3
		c0,3-1.2,4.7-2.1,5.6l2.6,2.6l-3.1,0.3L225.5,60.3z M225.3,56.6c0.5-0.7,1-1.7,1-3.4c0-3.2-2.2-5.5-5.3-5.5c-3.1,0-5.3,2.3-5.3,5.5
		c0,3.2,2.2,5.4,5.3,5.4c1.1,0,1.8-0.2,2.3-0.5l-3.2-3.1l3.2-0.3L225.3,56.6z"/>
	<path class="st1" d="M235.4,45.3v9.9c0,1.2,0.4,1.9,0.8,2.3c0.4,0.5,1.3,1.1,2.5,1.1c1.2,0,2.1-0.5,2.5-1.1
		c0.4-0.4,0.8-1.1,0.8-2.3v-9.9h3.1V55c0,1.5-0.2,3-1.2,4.2c-1.1,1.5-3.1,2.3-5.2,2.3c-2,0-4-0.8-5.2-2.3c-0.9-1.2-1.2-2.7-1.2-4.2
		v-9.7H235.4z"/>
	<path class="st1" d="M251.7,45.3v15.8h-3.1V45.3H251.7z"/>
	<path class="st1" d="M259.1,58.5h7.3v2.7H254l7.7-13.1h-6.5v-2.7h11.6L259.1,58.5z"/>
	<path class="st1" d="M272.9,58.5h7.3v2.7h-12.4l7.7-13.1H269v-2.7h11.6L272.9,58.5z"/>
	<path class="st1" d="M291.7,48H286v3.5h5.4v2.7H286v4.3h5.7v2.7h-8.8V45.3h8.8V48z"/>
	<path class="st1" d="M302.4,48.9c-0.9-1.2-2-1.3-2.6-1.3c-1.7,0-2.2,1-2.2,1.8c0,0.4,0.1,0.7,0.5,1.1c0.4,0.4,0.9,0.5,1.9,0.9
		c1.2,0.4,2.4,0.9,3.2,1.6c0.7,0.6,1.3,1.7,1.3,3.3c0,3.1-2.2,5.2-5.5,5.2c-2.9,0-4.6-1.8-5.4-3l2-1.9c0.8,1.5,2.2,2.1,3.3,2.1
		c1.4,0,2.4-0.9,2.4-2.2c0-0.6-0.2-1-0.6-1.4c-0.6-0.5-1.5-0.9-2.4-1.2c-0.8-0.3-1.8-0.7-2.6-1.4c-0.5-0.4-1.3-1.3-1.3-2.9
		c0-2.3,1.6-4.6,5.1-4.6c1,0,2.9,0.2,4.5,1.8L302.4,48.9z"/>
</g>
<rect x="204.9" transform="matrix(-1 -1.224647e-16 1.224647e-16 -1 413.6211 89.0593)" class="st2" width="3.8" height="89.1"/>
</svg>
