<?xml version="1.0" encoding="utf-8"?>
<!-- Generator: Adobe Illustrator 19.2.1, SVG Export Plug-In . SVG Version: 6.00 Build 0)  -->
<svg version="1.1" id="Layer_1" xmlns="http://www.w3.org/2000/svg" xmlns:xlink="http://www.w3.org/1999/xlink" x="0px" y="0px"
	 viewBox="0 0 200 200" style="enable-background:new 0 0 200 200;" xml:space="preserve">
<style type="text/css">
	.st0{fill:#EB2529;}
</style>
<g>
	<path class="st0" d="M174.9,98l-14-48.5c-0.7-2.6-4.1-3.4-6-1.5l-8.9,9.2c-0.5-0.7-1.1-1.5-1.9-2.1c-15-14.2-35.4-22.7-57.7-22.3
		C63.3,33.2,42.5,43.2,28,58.9c-4.3,4.6-3.9,11.7,0.6,16.1l1.3,1.2c5.3,5.1,13.7,4.9,18.9-0.3C58.5,66,72,59.7,87,59.3
		s28.8,5.5,38.9,15c0.7,0.6,1.3,1.1,2,1.6l-8.1,8.4c-1.9,2-1,5.3,1.7,6l49,12.1C173.2,103.1,175.6,100.6,174.9,98z"/>
	<path class="st0" d="M132.5,135.3l-54.2,31.3c-3.7,2.1-8.4-0.5-8.4-4.8V99.1c0-4.3,4.6-7.1,8.4-4.8l54.2,31.3
		C136.1,127.8,136.1,133,132.5,135.3z"/>
</g>
</svg>
