<?xml version="1.0" encoding="utf-8"?>
<!-- Generator: Adobe Illustrator 19.2.1, SVG Export Plug-In . SVG Version: 6.00 Build 0)  -->
<svg version="1.1" id="Layer_1" xmlns="http://www.w3.org/2000/svg" xmlns:xlink="http://www.w3.org/1999/xlink" x="0px" y="0px"
	 viewBox="0 0 400 300" style="enable-background:new 0 0 400 300;" xml:space="preserve">
<style type="text/css">
	.st0{fill:#FFFFFF;}
	.st1{fill:#808080;}
</style>
<rect width="400" height="300"/>
<g>
	<g>
		<path class="st0" d="M64.4,121.3l8.8,49.8l29.7-5.2l1.1,6.3l-37.2,6.6L57,122.6L64.4,121.3z"/>
		<path class="st0" d="M103.4,142.7c0.4-2.7,1.2-5.2,2.6-7.4c1.3-2.2,3.1-4.1,5.4-5.6c2.3-1.5,5-2.6,8.2-3.1
			c3.2-0.6,6.2-0.5,8.8,0.1c2.6,0.7,5,1.8,7,3.4c2,1.6,3.7,3.6,5,6.1c1.3,2.4,2.2,5.2,2.7,8.1s0.6,5.8,0.2,8.5
			c-0.4,2.7-1.2,5.2-2.6,7.4c-1.3,2.2-3.1,4.1-5.4,5.6c-2.2,1.5-5,2.5-8.2,3.1c-3.2,0.6-6.1,0.5-8.8-0.1c-2.7-0.6-5-1.8-7-3.4
			c-2-1.6-3.7-3.6-5-6.1c-1.3-2.4-2.2-5.1-2.7-8.1S103.1,145.5,103.4,142.7z M112.9,156.5c1,1.8,2.2,3.2,3.6,4.3
			c1.4,1.1,2.9,1.8,4.6,2.2c1.7,0.4,3.4,0.5,5.1,0.2c1.7-0.3,3.3-0.9,4.7-1.9c1.4-1,2.6-2.2,3.5-3.7c0.9-1.5,1.5-3.2,1.9-5.3
			c0.3-2,0.3-4.3-0.2-6.7c-0.4-2.5-1.1-4.6-2.1-6.4c-1-1.8-2.2-3.2-3.6-4.4c-1.4-1.1-2.9-1.9-4.6-2.3c-1.7-0.4-3.4-0.5-5.1-0.2
			s-3.3,0.9-4.7,1.9c-1.4,1-2.6,2.2-3.5,3.7c-0.9,1.5-1.5,3.3-1.9,5.3c-0.3,2-0.3,4.3,0.2,6.7C111.2,152.5,111.9,154.7,112.9,156.5z
			"/>
		<path class="st0" d="M190.5,156.7c-1,0.9-2.6,1.5-4.6,1.9c-1.7,0.3-3.2,0.1-4.4-0.7c-1.2-0.8-2-2.3-2.4-4.5
			c-1.4,2.5-3.3,4.5-5.6,5.9s-4.8,2.3-7.6,2.8c-1.8,0.3-3.6,0.4-5.3,0.3c-1.7-0.1-3.3-0.5-4.6-1.2c-1.4-0.7-2.5-1.7-3.5-3
			c-1-1.3-1.6-3-2-5c-0.4-2.3-0.3-4.3,0.2-5.9c0.5-1.6,1.4-3,2.5-4.1c1.1-1.1,2.5-2.1,4-2.9c1.6-0.8,3.2-1.5,4.9-2.1
			c1.8-0.7,3.5-1.3,5.1-1.7c1.6-0.5,3-1,4.2-1.6c1.2-0.6,2.1-1.2,2.7-2c0.6-0.8,0.8-1.8,0.6-3.1c-0.3-1.5-0.7-2.6-1.4-3.4
			c-0.7-0.8-1.5-1.3-2.5-1.7c-0.9-0.3-2-0.5-3.1-0.4c-1.1,0-2.2,0.1-3.2,0.3c-2.8,0.5-5.1,1.5-6.8,2.9c-1.7,1.4-2.4,3.6-2,6.6
			l-6.7,1.2c-0.3-2.5-0.2-4.7,0.4-6.6s1.6-3.5,3-4.9c1.4-1.3,3-2.4,5-3.3c1.9-0.8,4.1-1.4,6.4-1.9c1.8-0.3,3.7-0.5,5.5-0.6
			c1.9-0.1,3.6,0.2,5.2,0.7s3,1.5,4.1,2.8s1.9,3.1,2.3,5.5l3.7,20.9c0.3,1.6,0.6,2.7,0.9,3.4c0.3,0.7,1,1,2,0.8
			c0.6-0.1,1.2-0.3,2-0.7L190.5,156.7z M176,137.8c-0.7,0.8-1.7,1.4-3.1,1.9c-1.3,0.5-2.7,1-4.2,1.5c-1.5,0.4-2.9,0.9-4.4,1.4
			c-1.5,0.5-2.8,1.1-3.9,1.9c-1.1,0.7-2,1.6-2.6,2.7c-0.6,1.1-0.7,2.5-0.4,4.1c0.2,1.1,0.6,2,1.2,2.7c0.6,0.7,1.3,1.2,2.1,1.5
			c0.8,0.3,1.7,0.5,2.7,0.6c1,0,2,0,3-0.2c2.2-0.4,4-1,5.5-1.9c1.5-0.9,2.6-1.9,3.4-2.9c0.8-1.1,1.4-2.2,1.7-3.4
			c0.3-1.2,0.3-2.2,0.2-3.1L176,137.8z"/>
		<path class="st0" d="M226.3,150.6l-1-5.5l-0.2,0c-0.7,2.4-2.1,4.4-4.3,5.8c-2.2,1.4-4.7,2.4-7.5,2.9c-3.1,0.6-6,0.5-8.5-0.3
			c-2.5-0.7-4.7-1.9-6.6-3.6c-1.9-1.7-3.5-3.7-4.7-6.1c-1.2-2.4-2.1-5.1-2.6-8c-0.5-2.9-0.6-5.7-0.3-8.4c0.3-2.7,1.1-5.1,2.3-7.3
			c1.2-2.2,2.9-4,5-5.6c2.1-1.5,4.7-2.6,7.8-3.1c1-0.2,2.2-0.3,3.4-0.3c1.2,0,2.5,0.1,3.8,0.4c1.3,0.3,2.5,0.7,3.8,1.4
			c1.2,0.6,2.3,1.5,3.2,2.5l0.2,0l-3.7-20.9l6.7-1.2l9.9,56.1L226.3,150.6z M199.8,140.4c0.8,1.7,1.9,3.2,3.1,4.4s2.8,2.1,4.5,2.7
			c1.7,0.6,3.7,0.6,5.8,0.3c2.3-0.4,4.1-1.2,5.5-2.3c1.4-1.2,2.5-2.6,3.2-4.2c0.7-1.6,1.2-3.4,1.3-5.3c0.1-1.9,0-3.8-0.3-5.7
			c-0.4-2-0.9-3.9-1.7-5.6c-0.8-1.8-1.8-3.3-3.1-4.5c-1.3-1.2-2.8-2.1-4.6-2.7c-1.8-0.6-3.8-0.7-6.1-0.3c-2.3,0.4-4.1,1.2-5.5,2.3
			c-1.4,1.2-2.5,2.6-3.1,4.2c-0.7,1.6-1.1,3.4-1.2,5.4c-0.1,2,0,3.9,0.4,5.9C198.4,136.9,199,138.7,199.8,140.4z"/>
		<path class="st0" d="M235.2,99.6l-1.4-8.2l6.7-1.2l1.4,8.2L235.2,99.6z M243.2,105.7l7.2,40.6l-6.7,1.2l-7.2-40.6L243.2,105.7z"/>
		<path class="st0" d="M259.9,102.8l1.1,6.4l0.2,0c1.9-5.4,5.9-8.7,11.9-9.7c2.7-0.5,5-0.5,6.9-0.1c1.9,0.4,3.5,1.2,4.9,2.3
			c1.3,1.1,2.4,2.5,3.1,4.3c0.8,1.7,1.3,3.7,1.7,5.9l4.7,26.7l-6.7,1.2l-4.8-27.5c-0.4-2.5-1.5-4.4-3.3-5.6
			c-1.7-1.2-3.9-1.6-6.4-1.1c-2,0.4-3.8,1-5.1,1.9c-1.4,0.9-2.5,2-3.3,3.3c-0.8,1.3-1.3,2.8-1.5,4.4c-0.2,1.6-0.2,3.4,0.1,5.2
			l4,22.9l-6.7,1.2l-7.2-40.6L259.9,102.8z"/>
		<path class="st0" d="M336.9,142.9c-2.5,3.8-6.9,6.3-13.4,7.5c-1.9,0.3-3.8,0.5-5.9,0.4c-2-0.1-3.9-0.4-5.7-1.1
			c-1.8-0.7-3.3-1.7-4.6-3c-1.3-1.3-2.2-3.1-2.7-5.3l6.7-1.2c0.3,1.2,0.8,2.1,1.7,2.9c0.9,0.7,1.8,1.2,3,1.6
			c1.1,0.3,2.3,0.5,3.5,0.6c1.2,0,2.4-0.1,3.5-0.3c2.2-0.4,4-1.1,5.4-2.1c1.4-1,2.5-2.3,3.2-3.8c0.8-1.5,1.2-3.2,1.3-5.2
			c0.1-2,0-4.1-0.4-6.3l-0.5-2.7l-0.2,0c-0.7,2.7-2.1,4.9-4.2,6.5c-2.1,1.6-4.5,2.6-7.1,3.1c-3,0.5-5.8,0.5-8.2-0.2
			c-2.4-0.7-4.6-1.8-6.4-3.4c-1.8-1.6-3.4-3.6-4.6-5.9c-1.2-2.4-2-4.9-2.5-7.7c-0.4-2.4-0.5-4.9-0.4-7.6s0.8-5.1,1.9-7.5
			c1.1-2.3,2.7-4.4,4.9-6.1c2.2-1.8,5-3,8.5-3.6c2.6-0.5,5-0.3,7.4,0.4c2.3,0.7,4.3,2.1,5.9,4.2l0.1,0l-1-5.8l6.3-1.1l6.6,37.2
			C340,133.8,339.4,139.1,336.9,142.9z M325.2,126.1c1.4-1.2,2.4-2.6,3.1-4.3c0.7-1.7,1.1-3.5,1.2-5.4c0.1-2,0-3.9-0.3-5.8
			c-0.3-1.8-0.8-3.5-1.6-5.2c-0.7-1.7-1.7-3.1-2.8-4.3s-2.5-2.1-4.2-2.7c-1.6-0.6-3.5-0.7-5.6-0.3c-2.1,0.4-3.9,1.1-5.3,2.2
			c-1.4,1.1-2.4,2.4-3.2,3.9c-0.7,1.5-1.2,3.2-1.3,5.1c-0.1,1.9,0,3.8,0.3,5.7c0.3,1.8,0.8,3.6,1.5,5.4c0.7,1.8,1.6,3.3,2.8,4.7
			c1.2,1.3,2.5,2.3,4.2,3c1.6,0.7,3.5,0.8,5.7,0.4C322,128.1,323.8,127.3,325.2,126.1z"/>
	</g>
	<g>
		<path class="st1" d="M117.3,190.9l0.3,1.4l-2,0.3l1.1,6.1c0,0.2,0.1,0.3,0.1,0.4c0.1,0.1,0.1,0.2,0.2,0.2c0.1,0,0.2,0.1,0.4,0.1
			c0.2,0,0.4,0,0.6-0.1l0.7-0.1l0.3,1.4l-1.2,0.2c-0.4,0.1-0.8,0.1-1.1,0.1c-0.3,0-0.6-0.1-0.8-0.2c-0.2-0.1-0.4-0.3-0.5-0.6
			c-0.1-0.3-0.2-0.6-0.3-1.1l-1.1-6.3l-1.7,0.3l-0.3-1.4l1.7-0.3l-0.5-2.9l1.6-0.3l0.5,2.9L117.3,190.9z"/>
		<path class="st1" d="M120,186.5l0.9,5.2l0,0c0.1-0.3,0.2-0.6,0.4-0.9c0.2-0.2,0.4-0.5,0.7-0.6s0.5-0.3,0.8-0.5
			c0.3-0.1,0.6-0.2,0.9-0.3c0.6-0.1,1.2-0.1,1.7,0c0.5,0.1,0.9,0.3,1.2,0.6c0.3,0.3,0.6,0.6,0.8,1s0.3,0.9,0.4,1.4l1.1,6.5l-1.6,0.3
			l-1.2-6.7c-0.1-0.6-0.4-1.1-0.8-1.4c-0.4-0.3-0.9-0.4-1.6-0.3c-0.5,0.1-0.9,0.2-1.2,0.5c-0.3,0.2-0.6,0.5-0.8,0.8
			c-0.2,0.3-0.3,0.7-0.4,1.1c-0.1,0.4,0,0.8,0,1.3l1,5.6l-1.6,0.3l-2.4-13.6L120,186.5z"/>
		<path class="st1" d="M129.4,186.9l-0.3-2l1.6-0.3l0.3,2L129.4,186.9z M131.3,188.4l1.7,9.8l-1.6,0.3l-1.7-9.8L131.3,188.4z"/>
		<path class="st1" d="M136.4,195.4c0.2,0.2,0.4,0.4,0.7,0.5c0.3,0.1,0.6,0.2,0.9,0.2c0.3,0,0.6,0,1-0.1c0.3,0,0.5-0.1,0.8-0.2
			c0.3-0.1,0.5-0.2,0.7-0.3c0.2-0.1,0.4-0.3,0.5-0.5c0.1-0.2,0.1-0.5,0.1-0.8c-0.1-0.4-0.3-0.7-0.6-0.9c-0.4-0.2-0.8-0.3-1.3-0.3
			c-0.5,0-1-0.1-1.6-0.1c-0.6,0-1.1-0.1-1.6-0.2c-0.5-0.1-1-0.3-1.3-0.6s-0.6-0.8-0.7-1.4c-0.1-0.5-0.1-0.9,0.1-1.3
			c0.2-0.4,0.4-0.7,0.7-1s0.7-0.5,1.1-0.7s0.8-0.3,1.3-0.4c0.6-0.1,1.1-0.1,1.6-0.1c0.5,0,0.9,0.1,1.3,0.3c0.4,0.2,0.7,0.4,1,0.8
			s0.5,0.8,0.6,1.4l-1.6,0.3c-0.1-0.3-0.2-0.6-0.4-0.7c-0.2-0.2-0.4-0.3-0.6-0.4c-0.2-0.1-0.5-0.1-0.8-0.1c-0.3,0-0.5,0-0.8,0.1
			c-0.2,0-0.5,0.1-0.7,0.2c-0.2,0.1-0.5,0.2-0.6,0.3c-0.2,0.1-0.3,0.3-0.4,0.5c-0.1,0.2-0.1,0.4-0.1,0.7c0,0.3,0.2,0.5,0.4,0.6
			s0.5,0.3,0.8,0.3c0.3,0.1,0.7,0.1,1.1,0.1c0.4,0,0.8,0,1.2,0.1c0.4,0,0.8,0.1,1.2,0.1s0.8,0.2,1.1,0.3c0.3,0.2,0.6,0.4,0.9,0.7
			c0.2,0.3,0.4,0.7,0.5,1.1c0.1,0.6,0.1,1.1-0.1,1.5c-0.2,0.4-0.4,0.8-0.8,1.1s-0.8,0.6-1.3,0.7s-1,0.3-1.5,0.4
			c-0.5,0.1-1.1,0.1-1.6,0.1c-0.5,0-1-0.1-1.4-0.3c-0.4-0.2-0.8-0.5-1.1-0.9c-0.3-0.4-0.5-0.9-0.7-1.5l1.6-0.3
			C136.1,194.8,136.2,195.1,136.4,195.4z"/>
		<path class="st1" d="M154.8,186c-0.5-0.3-1-0.3-1.7-0.2c-0.6,0.1-1.1,0.3-1.4,0.6c-0.4,0.3-0.6,0.6-0.8,1
			c-0.2,0.4-0.3,0.8-0.3,1.3s0,1,0.1,1.5c0.1,0.5,0.2,0.9,0.4,1.3c0.2,0.4,0.4,0.8,0.7,1.1c0.3,0.3,0.6,0.5,1,0.7
			c0.4,0.1,0.9,0.2,1.4,0.1c0.8-0.1,1.4-0.5,1.8-1c0.4-0.5,0.5-1.1,0.5-1.9l1.7-0.3c0,1.2-0.2,2.3-0.9,3.1c-0.6,0.8-1.5,1.3-2.8,1.5
			c-0.7,0.1-1.4,0.1-2.1,0s-1.2-0.4-1.6-0.8c-0.5-0.4-0.8-0.9-1.2-1.4s-0.5-1.2-0.7-2c-0.1-0.7-0.2-1.4-0.1-2.1
			c0.1-0.7,0.3-1.3,0.6-1.8c0.3-0.5,0.7-1,1.3-1.4c0.5-0.4,1.2-0.6,2-0.8c0.6-0.1,1.1-0.1,1.6-0.1c0.5,0,1,0.2,1.4,0.4
			s0.8,0.5,1.1,0.9s0.6,0.9,0.7,1.4l-1.7,0.3C155.6,186.7,155.3,186.3,154.8,186z"/>
		<path class="st1" d="M159.1,186.5c0.1-0.7,0.3-1.3,0.6-1.8c0.3-0.5,0.8-1,1.3-1.4c0.5-0.4,1.2-0.6,2-0.8c0.8-0.1,1.5-0.1,2.1,0
			c0.6,0.2,1.2,0.4,1.7,0.8c0.5,0.4,0.9,0.9,1.2,1.5c0.3,0.6,0.5,1.2,0.7,2c0.1,0.7,0.1,1.4,0.1,2.1c-0.1,0.7-0.3,1.3-0.6,1.8
			c-0.3,0.5-0.8,1-1.3,1.3c-0.5,0.4-1.2,0.6-2,0.8c-0.8,0.1-1.5,0.1-2.1,0c-0.6-0.2-1.2-0.4-1.7-0.8c-0.5-0.4-0.9-0.9-1.2-1.5
			c-0.3-0.6-0.5-1.2-0.7-2C159,187.8,159,187.1,159.1,186.5z M161.4,189.8c0.2,0.4,0.5,0.8,0.9,1c0.3,0.3,0.7,0.4,1.1,0.5
			c0.4,0.1,0.8,0.1,1.2,0c0.4-0.1,0.8-0.2,1.1-0.5c0.3-0.2,0.6-0.5,0.9-0.9c0.2-0.4,0.4-0.8,0.5-1.3c0.1-0.5,0.1-1,0-1.6
			c-0.1-0.6-0.3-1.1-0.5-1.5c-0.2-0.4-0.5-0.8-0.9-1.1s-0.7-0.5-1.1-0.5s-0.8-0.1-1.2,0c-0.4,0.1-0.8,0.2-1.1,0.5s-0.6,0.5-0.9,0.9
			c-0.2,0.4-0.4,0.8-0.4,1.3c-0.1,0.5-0.1,1,0,1.6C161,188.8,161.2,189.4,161.4,189.8z"/>
		<path class="st1" d="M178.1,190.3l-0.3-1.6l0,0c-0.2,0.7-0.6,1.2-1.1,1.6c-0.5,0.4-1.1,0.6-1.8,0.8c-0.6,0.1-1.2,0.1-1.7,0
			c-0.5-0.1-0.9-0.3-1.2-0.5c-0.3-0.3-0.6-0.6-0.8-1c-0.2-0.4-0.3-0.9-0.4-1.4l-1.1-6.5l1.6-0.3l1.2,6.7c0.1,0.6,0.4,1.1,0.8,1.4
			s0.9,0.4,1.6,0.3c0.5-0.1,0.9-0.2,1.2-0.5c0.3-0.2,0.6-0.5,0.8-0.8c0.2-0.3,0.3-0.7,0.4-1.1c0.1-0.4,0-0.8,0-1.3l-1-5.6l1.6-0.3
			l1.7,9.8L178.1,190.3z"/>
		<path class="st1" d="M181.4,175.7l2.4,13.6l-1.6,0.3l-2.4-13.6L181.4,175.7z"/>
		<path class="st1" d="M193.4,187.6l-0.2-1.3l0,0c-0.2,0.6-0.5,1.1-1,1.4c-0.5,0.3-1.1,0.6-1.8,0.7c-0.8,0.1-1.4,0.1-2.1-0.1
			c-0.6-0.2-1.1-0.5-1.6-0.9c-0.5-0.4-0.8-0.9-1.1-1.5c-0.3-0.6-0.5-1.2-0.6-1.9s-0.1-1.4-0.1-2c0.1-0.7,0.3-1.2,0.5-1.8
			c0.3-0.5,0.7-1,1.2-1.4c0.5-0.4,1.1-0.6,1.9-0.8c0.3,0,0.5-0.1,0.8-0.1c0.3,0,0.6,0,0.9,0.1c0.3,0.1,0.6,0.2,0.9,0.3
			c0.3,0.2,0.6,0.4,0.8,0.6l0,0L191,174l1.6-0.3l2.4,13.6L193.4,187.6z M187,185.1c0.2,0.4,0.5,0.8,0.8,1.1c0.3,0.3,0.7,0.5,1.1,0.6
			c0.4,0.1,0.9,0.2,1.4,0.1c0.5-0.1,1-0.3,1.3-0.6c0.3-0.3,0.6-0.6,0.8-1c0.2-0.4,0.3-0.8,0.3-1.3c0-0.5,0-0.9-0.1-1.4
			c-0.1-0.5-0.2-0.9-0.4-1.4c-0.2-0.4-0.4-0.8-0.8-1.1c-0.3-0.3-0.7-0.5-1.1-0.7s-0.9-0.2-1.5-0.1c-0.5,0.1-1,0.3-1.3,0.6
			c-0.3,0.3-0.6,0.6-0.8,1c-0.2,0.4-0.3,0.8-0.3,1.3c0,0.5,0,1,0.1,1.4C186.7,184.2,186.8,184.7,187,185.1z"/>
		<path class="st1" d="M205.3,175.3l0.3,1.4l-2,0.3l1.1,6.1c0,0.2,0.1,0.3,0.1,0.4c0.1,0.1,0.1,0.2,0.2,0.2c0.1,0,0.2,0.1,0.4,0.1
			s0.4,0,0.6-0.1l0.7-0.1l0.3,1.4l-1.2,0.2c-0.4,0.1-0.8,0.1-1.1,0.1c-0.3,0-0.6-0.1-0.8-0.2c-0.2-0.1-0.4-0.3-0.5-0.6
			c-0.1-0.3-0.2-0.6-0.3-1.1l-1.1-6.3l-1.7,0.3l-0.3-1.4l1.7-0.3l-0.5-2.9l1.6-0.3l0.5,2.9L205.3,175.3z"/>
		<path class="st1" d="M217.5,183.3c-0.2,0.2-0.6,0.4-1.1,0.5c-0.4,0.1-0.8,0-1.1-0.2c-0.3-0.2-0.5-0.6-0.6-1.1
			c-0.3,0.6-0.8,1.1-1.3,1.4c-0.5,0.3-1.2,0.6-1.8,0.7c-0.4,0.1-0.9,0.1-1.3,0.1c-0.4,0-0.8-0.1-1.1-0.3c-0.3-0.2-0.6-0.4-0.8-0.7
			c-0.2-0.3-0.4-0.7-0.5-1.2c-0.1-0.6-0.1-1,0-1.4c0.1-0.4,0.3-0.7,0.6-1s0.6-0.5,1-0.7c0.4-0.2,0.8-0.4,1.2-0.5
			c0.4-0.2,0.8-0.3,1.2-0.4c0.4-0.1,0.7-0.2,1-0.4c0.3-0.1,0.5-0.3,0.7-0.5c0.2-0.2,0.2-0.4,0.1-0.7c-0.1-0.4-0.2-0.6-0.4-0.8
			c-0.2-0.2-0.4-0.3-0.6-0.4s-0.5-0.1-0.7-0.1c-0.3,0-0.5,0-0.8,0.1c-0.7,0.1-1.2,0.4-1.6,0.7c-0.4,0.3-0.6,0.9-0.5,1.6l-1.6,0.3
			c-0.1-0.6,0-1.1,0.1-1.6s0.4-0.9,0.7-1.2c0.3-0.3,0.7-0.6,1.2-0.8c0.5-0.2,1-0.3,1.5-0.4c0.4-0.1,0.9-0.1,1.3-0.1
			c0.4,0,0.9,0,1.3,0.2c0.4,0.1,0.7,0.4,1,0.7c0.3,0.3,0.5,0.8,0.6,1.3l0.9,5c0.1,0.4,0.1,0.7,0.2,0.8c0.1,0.2,0.2,0.2,0.5,0.2
			c0.1,0,0.3-0.1,0.5-0.2L217.5,183.3z M214,178.7c-0.2,0.2-0.4,0.3-0.7,0.5c-0.3,0.1-0.7,0.2-1,0.4c-0.4,0.1-0.7,0.2-1.1,0.3
			c-0.4,0.1-0.7,0.3-0.9,0.4c-0.3,0.2-0.5,0.4-0.6,0.7c-0.1,0.3-0.2,0.6-0.1,1c0,0.3,0.1,0.5,0.3,0.6c0.1,0.2,0.3,0.3,0.5,0.4
			c0.2,0.1,0.4,0.1,0.6,0.1c0.2,0,0.5,0,0.7-0.1c0.5-0.1,1-0.2,1.3-0.5c0.4-0.2,0.6-0.4,0.8-0.7c0.2-0.3,0.3-0.5,0.4-0.8
			s0.1-0.5,0-0.8L214,178.7z"/>
		<path class="st1" d="M218.3,169.2l1.4,8l3.7-5.1l2.2-0.4l-3.3,4.3l5.3,5.5l-2.1,0.4l-4.3-4.5l-1.3,1.7l0.7,3.7l-1.6,0.3l-2.4-13.6
			L218.3,169.2z"/>
		<path class="st1" d="M235.7,179.5c-0.6,0.7-1.5,1.1-2.6,1.3c-0.8,0.1-1.5,0.1-2.1,0s-1.2-0.4-1.6-0.8c-0.5-0.4-0.9-0.9-1.2-1.5
			c-0.3-0.6-0.5-1.3-0.7-2c-0.1-0.7-0.1-1.5,0-2.1c0.1-0.7,0.3-1.3,0.7-1.8c0.3-0.5,0.8-1,1.3-1.3c0.5-0.4,1.1-0.6,1.8-0.7
			c0.9-0.2,1.6-0.1,2.3,0.2s1.2,0.6,1.6,1.1c0.4,0.5,0.8,1.1,1,1.7c0.2,0.6,0.4,1.3,0.5,1.9l-7.4,1.3c0.1,0.4,0.2,0.8,0.4,1.2
			c0.2,0.4,0.4,0.7,0.7,0.9c0.3,0.3,0.7,0.4,1.1,0.5c0.4,0.1,0.9,0.1,1.4,0c0.7-0.1,1.2-0.4,1.6-0.8c0.4-0.4,0.6-0.9,0.6-1.6
			l1.6-0.3C236.7,177.9,236.4,178.8,235.7,179.5z M234.2,173.2c-0.2-0.3-0.5-0.6-0.7-0.8c-0.3-0.2-0.6-0.3-1-0.4
			c-0.4-0.1-0.7-0.1-1.2,0c-0.4,0.1-0.8,0.2-1.1,0.4c-0.3,0.2-0.6,0.5-0.8,0.8s-0.3,0.6-0.4,1c-0.1,0.4-0.1,0.7-0.1,1.1l5.6-1
			C234.6,173.9,234.4,173.5,234.2,173.2z"/>
		<path class="st1" d="M253.1,177c-0.2,0.2-0.6,0.4-1.1,0.5c-0.4,0.1-0.8,0-1.1-0.2c-0.3-0.2-0.5-0.6-0.6-1.1
			c-0.3,0.6-0.8,1.1-1.3,1.4c-0.5,0.3-1.2,0.6-1.8,0.7c-0.4,0.1-0.9,0.1-1.3,0.1s-0.8-0.1-1.1-0.3c-0.3-0.2-0.6-0.4-0.8-0.7
			s-0.4-0.7-0.5-1.2c-0.1-0.6-0.1-1,0-1.4c0.1-0.4,0.3-0.7,0.6-1c0.3-0.3,0.6-0.5,1-0.7c0.4-0.2,0.8-0.4,1.2-0.5
			c0.4-0.2,0.8-0.3,1.2-0.4c0.4-0.1,0.7-0.2,1-0.4c0.3-0.1,0.5-0.3,0.7-0.5c0.1-0.2,0.2-0.4,0.1-0.7c-0.1-0.4-0.2-0.6-0.4-0.8
			c-0.2-0.2-0.4-0.3-0.6-0.4c-0.2-0.1-0.5-0.1-0.7-0.1c-0.3,0-0.5,0-0.8,0.1c-0.7,0.1-1.2,0.4-1.6,0.7c-0.4,0.3-0.6,0.9-0.5,1.6
			l-1.6,0.3c-0.1-0.6,0-1.1,0.1-1.6c0.2-0.5,0.4-0.9,0.7-1.2c0.3-0.3,0.7-0.6,1.2-0.8c0.5-0.2,1-0.3,1.5-0.4
			c0.4-0.1,0.9-0.1,1.3-0.1c0.4,0,0.9,0,1.3,0.2c0.4,0.1,0.7,0.4,1,0.7c0.3,0.3,0.5,0.8,0.6,1.3l0.9,5c0.1,0.4,0.1,0.7,0.2,0.8
			c0.1,0.2,0.2,0.2,0.5,0.2c0.1,0,0.3-0.1,0.5-0.2L253.1,177z M249.6,172.4c-0.2,0.2-0.4,0.3-0.7,0.5c-0.3,0.1-0.7,0.2-1,0.4
			c-0.4,0.1-0.7,0.2-1.1,0.3c-0.4,0.1-0.7,0.3-0.9,0.4c-0.3,0.2-0.5,0.4-0.6,0.7c-0.1,0.3-0.2,0.6-0.1,1c0,0.3,0.1,0.5,0.3,0.6
			c0.1,0.2,0.3,0.3,0.5,0.4c0.2,0.1,0.4,0.1,0.6,0.1c0.2,0,0.5,0,0.7-0.1c0.5-0.1,1-0.2,1.3-0.5c0.4-0.2,0.6-0.5,0.8-0.7
			c0.2-0.3,0.3-0.5,0.4-0.8s0.1-0.5,0-0.8L249.6,172.4z"/>
		<path class="st1" d="M267.9,174.4l-3.4-7.5l0,0l-0.6,8.2l-1.7,0.3l-4.9-9.3l1.8-0.3l3.6,7.6l0,0l0.6-8.4l1.8-0.3l3.5,7.7l0,0
			l0.8-8.4l1.7-0.3l-1.4,10.4L267.9,174.4z"/>
		<path class="st1" d="M273.5,159.4l0.9,5.2l0,0c0.1-0.3,0.2-0.6,0.4-0.9s0.4-0.5,0.7-0.6c0.3-0.2,0.5-0.3,0.8-0.5
			c0.3-0.1,0.6-0.2,0.9-0.3c0.6-0.1,1.2-0.1,1.7,0s0.9,0.3,1.2,0.6c0.3,0.3,0.6,0.6,0.8,1c0.2,0.4,0.3,0.9,0.4,1.4l1.1,6.5l-1.6,0.3
			l-1.2-6.7c-0.1-0.6-0.4-1.1-0.8-1.4c-0.4-0.3-0.9-0.4-1.6-0.3c-0.5,0.1-0.9,0.2-1.2,0.5c-0.3,0.2-0.6,0.5-0.8,0.8
			s-0.3,0.7-0.4,1.1c-0.1,0.4,0,0.8,0,1.3l1,5.6l-1.6,0.3l-2.4-13.6L273.5,159.4z"/>
		<path class="st1" d="M282.9,159.8l-0.3-2l1.6-0.3l0.3,2L282.9,159.8z M284.8,161.3l1.7,9.8l-1.6,0.3l-1.7-9.8L284.8,161.3z"/>
		<path class="st1" d="M288.4,156.8l2.4,13.6l-1.6,0.3l-2.4-13.6L288.4,156.8z"/>
		<path class="st1" d="M300.1,168.1c-0.6,0.7-1.5,1.1-2.6,1.3c-0.8,0.1-1.5,0.1-2.1,0s-1.2-0.4-1.6-0.8c-0.5-0.4-0.9-0.9-1.2-1.5
			c-0.3-0.6-0.5-1.3-0.7-2c-0.1-0.7-0.1-1.5,0-2.1c0.1-0.7,0.3-1.3,0.7-1.8c0.3-0.5,0.8-1,1.3-1.3c0.5-0.4,1.1-0.6,1.8-0.7
			c0.9-0.2,1.6-0.1,2.3,0.2s1.2,0.6,1.6,1.1c0.4,0.5,0.8,1.1,1,1.7c0.2,0.6,0.4,1.3,0.5,1.9l-7.4,1.3c0.1,0.4,0.2,0.8,0.4,1.2
			c0.2,0.4,0.4,0.7,0.7,0.9c0.3,0.3,0.7,0.4,1.1,0.5c0.4,0.1,0.9,0.1,1.4,0c0.7-0.1,1.2-0.4,1.6-0.8s0.6-0.9,0.6-1.6l1.6-0.3
			C301.1,166.5,300.8,167.4,300.1,168.1z M298.6,161.9c-0.2-0.3-0.5-0.6-0.7-0.8c-0.3-0.2-0.6-0.3-1-0.4c-0.4-0.1-0.7-0.1-1.2,0
			c-0.4,0.1-0.8,0.2-1.1,0.4s-0.6,0.5-0.8,0.8s-0.3,0.6-0.4,1c-0.1,0.4-0.1,0.7-0.1,1.1l5.6-1C299,162.5,298.9,162.2,298.6,161.9z"
			/>
	</g>
</g>
</svg>
