<?xml version="1.0" encoding="utf-8"?>
<!-- Generator: Adobe Illustrator 19.2.1, SVG Export Plug-In . SVG Version: 6.00 Build 0)  -->
<svg version="1.1" id="Layer_1" xmlns="http://www.w3.org/2000/svg" xmlns:xlink="http://www.w3.org/1999/xlink" x="0px" y="0px"
	 viewBox="0 0 200 200" style="enable-background:new 0 0 200 200;" xml:space="preserve">
<style type="text/css">
	.st0{fill:#FFFFFF;}
</style>
<path class="st0" d="M100.6,39.4c-15.3-0.3-29.4,5.1-40.2,14.3l-8-8c-0.8-0.8-2.2-0.4-2.5,0.7l-9.8,36.5c-0.3,1.1,0.7,2.1,1.8,1.8
	l36.5-9.8c1.1-0.3,1.5-1.7,0.7-2.5l-8-8c8.1-6.5,18.5-10.2,29.8-9.9c23.6,0.8,42.9,19.8,44,43.3c1.2,26.1-19.6,47.7-45.5,47.7
	c-10.2,0-19.6-3.3-27.2-9c-3.1-2.3-7.4-2-10.1,0.7h0c-3.2,3.2-2.8,8.5,0.8,11.2c10.1,7.6,22.7,12.1,36.4,12.1
	c34,0,61.4-27.9,60.6-62.1C159.2,66.2,132.8,40,100.6,39.4z"/>
</svg>
