<?xml version="1.0" encoding="utf-8"?>
<!-- Generator: Adobe Illustrator 19.2.1, SVG Export Plug-In . SVG Version: 6.00 Build 0)  -->
<svg version="1.1" id="Layer_1" xmlns="http://www.w3.org/2000/svg" xmlns:xlink="http://www.w3.org/1999/xlink" x="0px" y="0px"
	 viewBox="0 0 102.2 76" style="enable-background:new 0 0 102.2 76;" xml:space="preserve">
<style type="text/css">
	.st0{fill:#111111;}
	.st1{fill:#202020;}
	.st2{fill:#303030;}
	.st3{stroke:#FFFFFF;stroke-width:0.5;stroke-miterlimit:10;}
	.st4{fill:#FFFFFF;}
	.st5{fill:#606161;}
	.st6{fill:none;stroke:#FFFFFF;stroke-miterlimit:10;}
</style>
<rect x="0.5" y="0.5" width="101.2" height="75"/>
<rect x="1.1" y="7.7" class="st0" width="100" height="52.8"/>
<g>
	<rect x="15.9" y="7.7" class="st1" width="70.4" height="52.8"/>
	<rect x="19.4" y="11.2" class="st2" width="63.4" height="21.1"/>
	<rect x="19.4" y="35.9" class="st2" width="28.2" height="14.1"/>
	<rect x="54.6" y="35.9" class="st2" width="28.2" height="14.1"/>
	<rect x="19.4" y="53.5" class="st2" width="12" height="3.5"/>
	<rect x="35.6" y="53.5" class="st2" width="12" height="3.5"/>
	<rect x="54.6" y="53.5" class="st2" width="12" height="3.5"/>
	<rect x="70.8" y="53.5" class="st2" width="12" height="3.5"/>
</g>
<circle class="st3" cx="12.4" cy="67.9" r="3.4"/>
<path class="st4" d="M92,68.4H19.3c-0.2,0-0.4-0.2-0.4-0.4l0,0c0-0.2,0.2-0.4,0.4-0.4H92c0.2,0,0.4,0.2,0.4,0.4l0,0
	C92.5,68.2,92.3,68.4,92,68.4z"/>
<path class="st5" d="M37.4,6H4.6C3.7,6,3,5.3,3,4.4v0c0-0.9,0.7-1.6,1.6-1.6h32.8c0.9,0,1.6,0.7,1.6,1.6v0C39,5.3,38.3,6,37.4,6z"/>
<path class="st4" d="M14.4,68.4l-2.6,1.5c-0.3,0.2-0.7,0-0.7-0.4v-3c0-0.4,0.4-0.6,0.7-0.4l2.6,1.5C14.7,67.7,14.7,68.2,14.4,68.4z"
	/>
<rect x="0.5" y="0.5" class="st6" width="101.2" height="75"/>
<circle class="st4" cx="19.8" cy="67.9" r="1.6"/>
</svg>
