<?xml version="1.0" encoding="utf-8"?>
<!-- Generator: Adobe Illustrator 19.2.1, SVG Export Plug-In . SVG Version: 6.00 Build 0)  -->
<svg version="1.1" id="Layer_1" xmlns="http://www.w3.org/2000/svg" xmlns:xlink="http://www.w3.org/1999/xlink" x="0px" y="0px"
	 viewBox="0 0 210 210" style="enable-background:new 0 0 210 210;" xml:space="preserve">
<style type="text/css">
	.st0{fill:#FFFFFF;}
	.st1{stroke:#FFFFFF;stroke-width:10;stroke-miterlimit:10;}
</style>
<g>
	<path class="st0" d="M83.7,155H66c-3.8,0-7-3.1-7-7V62c0-3.8,3.2-7,7-7h17.7c3.9,0,7,3.2,7,7v86C90.7,151.9,87.5,155,83.7,155z"/>
	<path class="st0" d="M144,155h-17.7c-3.9,0-7-3.1-7-7V62c0-3.8,3.1-7,7-7H144c3.9,0,7,3.2,7,7v86C151,151.9,147.9,155,144,155z"/>
</g>
<path class="st0" d="M145.1,111.6L71.6,154c-5,2.9-11.4-0.7-11.4-6.6V62.6c0-5.8,6.3-9.5,11.4-6.6l73.5,42.4
	C150.1,101.4,150.1,108.6,145.1,111.6z"/>
<circle class="st1" cx="105" cy="105" r="100"/>
<path class="st0" d="M50.2,126.9H37.1c-3,0-5.5-2.5-5.5-5.5V89.5c0-3,2.5-5.5,5.5-5.5h13.1c3,0,5.5,2.5,5.5,5.5v31.9
	C55.7,124.4,53.2,126.9,50.2,126.9z"/>
<polygon class="st0" points="169.6,91.2 160.7,82.2 146.9,96.1 133,82.2 124.1,91.2 137.9,105 124.1,118.8 133,127.8 146.9,113.9 
	160.7,127.8 169.6,118.8 155.8,105 "/>
<path class="st0" d="M93.1,153.2L62.8,129c-1.7-1.3-2.6-3.4-2.6-5.5V87.4c0-2.1,1-4.2,2.6-5.5l30.2-24.3c4.6-3.7,11.5-0.4,11.5,5.5
	v84.6C104.5,153.7,97.7,156.9,93.1,153.2z"/>
</svg>
