<?xml version="1.0" encoding="utf-8"?>
<!-- Generator: Adobe Illustrator 19.2.1, SVG Export Plug-In . SVG Version: 6.00 Build 0)  -->
<svg version="1.1" id="Layer_1" xmlns="http://www.w3.org/2000/svg" xmlns:xlink="http://www.w3.org/1999/xlink" x="0px" y="0px"
	 viewBox="0 0 210 210" style="enable-background:new 0 0 210 210;" xml:space="preserve">
<style type="text/css">
	.st0{fill:#FFFFFF;}
	.st1{stroke:#FFFFFF;stroke-width:10;stroke-miterlimit:10;}
</style>
<polygon class="st0" points="169.6,91.2 160.7,82.2 146.9,96.1 133,82.2 124.1,91.2 137.9,105 124.1,118.8 133,127.8 146.9,113.9 
	160.7,127.8 169.6,118.8 155.8,105 "/>
<g>
	<path class="st0" d="M83.7,155H66c-3.8,0-7-3.1-7-7V62c0-3.8,3.2-7,7-7h17.7c3.9,0,7,3.2,7,7v86C90.7,151.9,87.5,155,83.7,155z"/>
	<path class="st0" d="M144,155h-17.7c-3.9,0-7-3.1-7-7V62c0-3.8,3.1-7,7-7H144c3.9,0,7,3.2,7,7v86C151,151.9,147.9,155,144,155z"/>
</g>
<path class="st0" d="M145.1,111.6L71.6,154c-5,2.9-11.4-0.7-11.4-6.6V62.6c0-5.8,6.3-9.5,11.4-6.6l73.5,42.4
	C150.1,101.4,150.1,108.6,145.1,111.6z"/>
<circle class="st1" cx="105" cy="105" r="100"/>
<path class="st0" d="M50.2,126.9H37.1c-3,0-5.5-2.5-5.5-5.5V89.5c0-3,2.5-5.5,5.5-5.5h13.1c3,0,5.5,2.5,5.5,5.5v31.9
	C55.7,124.4,53.2,126.9,50.2,126.9z"/>
<path class="st0" d="M93.1,153.2L62.8,129c-1.7-1.3-2.6-3.4-2.6-5.5V87.4c0-2.1,1-4.2,2.6-5.5l30.2-24.3c4.6-3.7,11.5-0.4,11.5,5.5
	v84.6C104.5,153.7,97.7,156.9,93.1,153.2z"/>
<g>
	<path class="st0" d="M129.6,105.1c0,8.9-3.5,17-9.2,22.9c-1.1,1.1-1.1,2.8,0,3.9l0.1,0.1c1.1,1.1,2.8,1.1,3.9,0
		c6.7-7,10.9-16.4,10.9-26.9s-4.1-19.9-10.9-26.9c-1.1-1.1-2.8-1.1-3.9,0l-0.1,0.1c-1.1,1.1-1,2.8,0,3.9
		C126,88.1,129.6,96.2,129.6,105.1z"/>
	<path class="st0" d="M137.4,69.2L137.4,69.2c-1.5,1.5-1.5,3.8-0.1,5.3c7.5,8,12.1,18.8,12.1,30.6s-4.6,22.6-12.1,30.6
		c-1.4,1.5-1.4,3.8,0.1,5.3l0,0c1.5,1.5,4,1.5,5.5-0.1c8.7-9.4,14.1-22,14.1-35.8s-5.4-26.4-14.1-35.8
		C141.4,67.7,138.9,67.7,137.4,69.2z"/>
	<path class="st0" d="M154,58.6L154,58.6c-1.9,1.9-2,4.9-0.2,6.9c9.6,10.4,15.4,24.3,15.4,39.6s-5.8,29.2-15.4,39.6
		c-1.8,2-1.7,5,0.2,6.9v0c2,2,5.3,2,7.2-0.1c11.2-12.2,18-28.5,18-46.4s-6.8-34.1-18-46.4C159.3,56.6,156,56.6,154,58.6z"/>
</g>
</svg>
