<?xml version="1.0" encoding="utf-8"?>
<!-- Generator: Adobe Illustrator 19.2.1, SVG Export Plug-In . SVG Version: 6.00 Build 0)  -->
<svg version="1.1" id="Layer_1" xmlns="http://www.w3.org/2000/svg" xmlns:xlink="http://www.w3.org/1999/xlink" x="0px" y="0px"
	 viewBox="0 0 400 300" style="enable-background:new 0 0 400 300;" xml:space="preserve">
<style type="text/css">
	.st0{fill:#303030;stroke:#202020;stroke-width:5.2119;stroke-miterlimit:10;}
</style>
<path class="st0" d="M200,50c-31.9,0-57.7,26.1-57.7,57.7V150v42.3c0,31.9,26.1,57.7,57.7,57.7s57.7-26.1,57.7-57.7V150v-42.3
	C257.7,76.1,231.6,50,200,50z M214.5,221.6h-28.7l8.7-27.7c-5.2-1.9-8.7-7.4-8.7-12.9c0-7.7,6.1-14.2,14.2-14.2s14.2,6.1,14.2,14.2
	c0,5.8-3.5,11-8.7,12.9L214.5,221.6z M243.5,149.7h-87.4v-36.1c0-27.1,19.7-49.4,43.9-49.4s43.9,22.3,43.9,49.4v36.1H243.5z"/>
</svg>