<?xml version="1.0" encoding="utf-8"?>
<!-- Generator: Adobe Illustrator 19.2.1, SVG Export Plug-In . SVG Version: 6.00 Build 0)  -->
<svg version="1.1" id="Layer_1" xmlns="http://www.w3.org/2000/svg" xmlns:xlink="http://www.w3.org/1999/xlink" x="0px" y="0px"
	 viewBox="0 0 214.8 214.8" style="enable-background:new 0 0 214.8 214.8;" xml:space="preserve">
<style type="text/css">
	.st0{stroke:#787878;stroke-width:10;stroke-miterlimit:10;}
	.st1{fill:#787878;}
</style>
<circle class="st0" cx="107.4" cy="107.4" r="102.4"/>
<g>
	<path class="st1" d="M61.8,83.2c0-7.3,1.1-13.9,3.3-19.9c2.2-6,5.4-11.1,9.6-15.3c4.2-4.2,9.2-7.5,15.1-9.9
		c5.9-2.3,12.5-3.5,19.8-3.5c6.1,0,11.8,0.9,17,2.7c5.2,1.8,9.8,4.4,13.7,7.8c3.9,3.4,7,7.6,9.3,12.7c2.3,5,3.4,10.8,3.4,17.1
		c0,4.7-0.5,8.7-1.5,12.1c-1,3.4-2.3,6.3-4,8.8c-1.7,2.5-3.6,4.7-5.7,6.6c-2.1,1.9-4.3,3.8-6.4,5.7c-2.5,2.1-4.9,4.2-7,6.2
		c-2.1,2-4,4.2-5.6,6.7c-1.6,2.5-2.8,5.3-3.7,8.7c-0.9,3.3-1.3,7.4-1.3,12.2H96.4c0-5.8,0.3-10.8,0.9-14.8c0.6-4,1.6-7.6,2.9-10.7
		c1.3-3.1,3-5.7,4.9-8.1c1.9-2.3,4.2-4.6,6.9-6.9c2.1-1.9,4.1-3.6,6.1-5.2c1.9-1.6,3.7-3.4,5.2-5.3c1.5-1.9,2.7-4.1,3.6-6.5
		c0.9-2.4,1.3-5.2,1.3-8.6c0-4-0.7-7.4-2.1-10.3c-1.4-2.9-3.1-5.1-5.1-6.9c-2-1.7-4.1-3-6.4-3.8c-2.3-0.8-4.3-1.2-6-1.2
		c-8.2,0-14.3,2.7-18.2,8.1c-3.9,5.4-5.9,12.6-5.9,21.6H61.8z M93.4,155.3h26.7v24.9H93.4V155.3z"/>
</g>
</svg>
