<?xml version="1.0" encoding="utf-8"?>
<!-- Generator: Adobe Illustrator 19.2.1, SVG Export Plug-In . SVG Version: 6.00 Build 0)  -->
<svg version="1.1" id="Layer_1" xmlns="http://www.w3.org/2000/svg" xmlns:xlink="http://www.w3.org/1999/xlink" x="0px" y="0px"
	 viewBox="0 0 214.8 214.8" style="enable-background:new 0 0 214.8 214.8;" xml:space="preserve">
<style type="text/css">
	.st0{stroke:#4B89C8;stroke-width:10;stroke-miterlimit:10;}
	.st1{fill:#4B89C8;stroke:#4B89C8;stroke-width:10;stroke-miterlimit:10;}
</style>
<circle class="st0" cx="107.4" cy="107.4" r="102.4"/>
<path class="st1" d="M110.3,46.3c-16.3,0-31.1,6.4-42,16.7L56.1,50.8L43.4,98.1l47.3-12.7L78.2,72.9c8.4-7.8,19.7-12.6,32.1-12.6
	c26,0,47.1,21.1,47.1,47.1c0,26-21.1,47.1-47.1,47.1c-13,0-24.8-5.3-33.3-13.8l-9.9,9.9c11.1,11.1,26.3,17.9,43.2,17.9
	c33.8,0,61.1-27.4,61.1-61.1S144,46.3,110.3,46.3z"/>
</svg>
